<?xml version="1.0" encoding="UTF-8" standalone="no"?>
<!DOCTYPE svg PUBLIC "-//W3C//DTD SVG 1.1//EN" "http://www.w3.org/Graphics/SVG/1.1/DTD/svg11.dtd">
<svg width="100%" height="100%" viewBox="0 0 996 409" version="1.1" xmlns="http://www.w3.org/2000/svg" xmlns:xlink="http://www.w3.org/1999/xlink" xml:space="preserve" xmlns:serif="http://www.serif.com/" style="fill-rule:evenodd;clip-rule:evenodd;stroke-linecap:round;stroke-linejoin:round;stroke-miterlimit:1.5;">
    <g transform="matrix(0.995379,0,0,1.00661,-0.786607,0.802672)">
        <rect x="0.79" y="-0.797" width="1000.37" height="411.605"/>
    </g>
    <g id="Logo_1" transform="matrix(1,0,0,1,-893.231,-1425.75)">
        <g transform="matrix(0.845161,2.1684e-19,-2.1684e-19,0.845161,1109.36,358.832)">
            <g id="D" transform="matrix(1,0,0,1,-553,414)">
                <path d="M1262.71,1260.54L1063,1260.54L1063,852L1262.71,852C1379.99,852 1474.21,943.529 1474.21,1056.27C1474.21,1169.01 1379.99,1260.54 1262.71,1260.54ZM1266.2,1244.89L1080.84,1245.41L1079.77,868.206L1265.14,867.682C1374,867.374 1456.61,952.175 1456.91,1056.27C1457.2,1160.36 1375.06,1244.58 1266.2,1244.89Z" style="fill:white;"/>
            </g>
            <g id="R" transform="matrix(-1.09779,0.0180447,0.0153645,0.934734,2141.35,454.14)">
                <path d="M1303.07,1053.25C1297.64,1053.25 1292.29,1050.39 1287.22,1048.82C1255.77,1039.08 1231.22,1001.43 1230.96,956.366C1230.65,904.076 1268.7,860.446 1304.85,860.516C1314.99,860.536 1347.77,859.646 1347.77,859.646L1354.32,1262.84L1368.89,1262.56L1363.01,842.234C1333.54,842.538 1304.41,842.906 1289.5,846C1245.88,859.163 1216.73,897.128 1216.18,953.535C1215.72,1000.27 1236.55,1040.19 1262.13,1053.6C1268.28,1058.23 1281.45,1064.43 1281.45,1064.43L1227.35,1237.48L1242.93,1244.67L1296.06,1070.33L1351.17,1068.93L1350.9,1052.28L1303.07,1053.25Z" style="fill:rgb(255,64,0);stroke:rgb(236,155,238);stroke-width:1.16px;"/>
            </g>
            <g id="R1" serif:id="R" transform="matrix(1,0,0,1,-553,414)">
                <path d="M1228,906.068L1227,1245.99L1211,1245.99L1211,852C1215.98,851.962 1225.62,852.064 1225.62,852.064L1359.8,1202.78L1357.32,968.901C1357.52,958.934 1357.32,948.967 1357,939L1373,938C1373.82,945.889 1374.19,953.736 1374.08,961.54L1375,1212C1372.06,1215.56 1354.41,1225.61 1349,1227C1349,1227 1229.03,911.401 1228,906.068L1228,906C1227.99,905.999 1227.99,906.022 1228,906.068Z" style="fill:rgb(0,82,255);stroke:rgb(239,151,153);stroke-width:1.18px;"/>
            </g>
            <g id="X" transform="matrix(1,0,0,1,-553,414)">
                <path d="M1219.99,1042.79L1088,867.784L1079.77,868.206L1079.81,882.769L1209.99,1056.15L1080.73,1229L1080.84,1245.41L1087.25,1245.39L1219.71,1069.09L1340.83,1230.39L1356.02,1223.15L1229.75,1055.73L1343,905L1332,893L1219.99,1042.79Z" style="fill:rgb(255,164,0);stroke:rgb(255,164,0);stroke-width:1.18px;"/>
            </g>
            <g id="E" transform="matrix(1,0,0,1,-553,414)">
                <path d="M1080.33,1064.4L1080.84,1245.41L1262.2,1244.89L1262.71,1260.54L1063,1260.54L1063,852L1262.71,852L1263.14,867.682L1079.77,868.206L1080.28,1048L1358,1048L1358,1064L1080.33,1064.4Z" style="fill:rgb(255,249,0);"/>
            </g>
            <g id="L" transform="matrix(1,0,0,1,-553,414)">
                <path d="M1080.28,1048L1080.84,1245.41L1262.2,1244.89L1262.71,1260.54L1063,1260.54L1063,852L1079.77,852.206L1080.28,1048Z" style="fill:rgb(0,244,0);"/>
            </g>
            <g id="A" transform="matrix(1,0,0,1,-553,414)">
                <path d="M1151.16,1063.58L1081.84,1246.41L1080.73,1207.72L1207.59,867.839L1231.14,867.784L1365.38,1218.22L1349.13,1226.77L1287.91,1063.64L1151.16,1063.58ZM1219.81,883.951L1282.18,1048.38L1157,1048.27L1219.81,883.951Z" style="fill:white;"/>
            </g>
            <g id="contour" transform="matrix(1,0,0,1,-664,-72)">
                <g id="D1" serif:id="D" transform="matrix(1,0,0,1,111,487)">
                    <path d="M1262.71,1260.54L1063,1260.54L1063,852L1262.71,852C1379.99,852 1474.21,943.529 1474.21,1056.27C1474.21,1169.01 1379.99,1260.54 1262.71,1260.54ZM1266.2,1244.89L1080.84,1245.41L1079.77,868.206L1265.14,867.682C1374,867.374 1456.61,952.175 1456.91,1056.27C1457.2,1160.36 1375.06,1244.58 1266.2,1244.89Z" style="fill:none;stroke:rgb(24,62,237);stroke-width:2.47px;"/>
                </g>
                <g id="R2" serif:id="R" transform="matrix(-1.09779,0.0180447,0.0153645,0.934734,2805.35,527.14)">
                    <path d="M1303.07,1053.25C1297.64,1053.25 1292.29,1050.39 1287.22,1048.82C1255.77,1039.08 1231.22,1001.43 1230.96,956.366C1230.65,904.076 1268.7,860.446 1304.85,860.516C1314.99,860.536 1347.77,859.646 1347.77,859.646L1354.32,1262.84L1368.89,1262.56L1363.01,842.234C1333.54,842.538 1304.41,842.906 1289.5,846C1245.88,859.163 1216.73,897.128 1216.18,953.535C1215.72,1000.27 1236.55,1040.19 1262.13,1053.6C1268.28,1058.23 1281.45,1064.43 1281.45,1064.43L1227.35,1237.48L1242.93,1244.67L1296.06,1070.33L1351.17,1068.93L1350.9,1052.28L1303.07,1053.25Z" style="fill:none;stroke:rgb(24,62,237);stroke-width:2.42px;"/>
                </g>
                <g id="R3" serif:id="R" transform="matrix(1,0,0,1,111,487)">
                    <path d="M1228,906.068L1227,1245L1211,1245L1211,852C1215.98,851.962 1225.62,852.064 1225.62,852.064L1359.8,1202.78L1357.32,968.901C1357.52,958.934 1357.32,948.967 1357,939L1373,938C1373.82,945.889 1374.19,953.736 1374.08,961.54L1375,1212C1372.06,1215.56 1354.41,1225.61 1349,1227C1349,1227 1229.03,911.401 1228,906.068L1228,906C1227.99,905.999 1227.99,906.022 1228,906.068Z" style="fill:none;stroke:rgb(24,62,237);stroke-width:2.47px;"/>
                </g>
                <g id="X1" serif:id="X" transform="matrix(1,0,0,1,111,487)">
                    <path d="M1219.99,1042.79L1088,867.784L1079.77,868.206L1079.81,882.769L1209.99,1056.15L1080.73,1229L1080.84,1245.41L1087.25,1245.39L1219.71,1069.09L1340.83,1230.39L1356.02,1223.15L1229.75,1055.73L1343,905L1332,893L1219.99,1042.79Z" style="fill:none;stroke:rgb(24,62,237);stroke-width:2.47px;"/>
                </g>
                <g id="E1" serif:id="E" transform="matrix(1,0,0,1,111,487)">
                    <path d="M1080.33,1064.4L1080.84,1245.41L1262.2,1244.89L1262.71,1260.54L1063,1260.54L1063,852L1262.71,852L1263.14,867.682L1079.77,868.206L1080.28,1048L1358,1048L1358,1064L1080.33,1064.4Z" style="fill:none;stroke:rgb(24,62,237);stroke-width:2.47px;"/>
                </g>
                <g id="L1" serif:id="L" transform="matrix(1,0,0,1,111,487)">
                    <path d="M1080.28,1048L1080.84,1245.41L1262.2,1244.89L1262.71,1260.54L1063,1260.54L1063,852L1079.77,852.206L1080.28,1048Z" style="fill:none;stroke:rgb(24,62,237);stroke-width:2.47px;"/>
                </g>
                <g id="A1" serif:id="A" transform="matrix(1,0,0,1,111,487)">
                    <path d="M1151.16,1063.58L1080.84,1245.41L1080.73,1207.72L1207.59,867.839L1231.14,867.784L1365.38,1218.22L1349.13,1226.77L1287.91,1063.64L1151.16,1063.58ZM1219.81,883.951L1282.18,1048.38L1157,1048.27L1219.81,883.951Z" style="fill:none;stroke:rgb(24,62,237);stroke-width:2.47px;"/>
                </g>
            </g>
            <g id="contour1" serif:id="contour" transform="matrix(1,0,0,1,-664,-72)">
                <g id="D2" serif:id="D" transform="matrix(1,0,0,1,111,487)">
                    <path d="M1262.71,1260.54L1063,1260.54L1063,852L1262.71,852C1379.99,852 1474.21,943.529 1474.21,1056.27C1474.21,1169.01 1379.99,1260.54 1262.71,1260.54ZM1266.2,1244.89L1080.84,1245.41L1079.77,868.206L1265.14,867.682C1374,867.374 1456.61,952.175 1456.91,1056.27C1457.2,1160.36 1375.06,1244.58 1266.2,1244.89Z" style="fill:none;stroke:rgb(24,62,237);stroke-width:2.47px;"/>
                </g>
                <g id="R4" serif:id="R" transform="matrix(-1.09779,0.0180447,0.0153645,0.934734,2805.35,527.14)">
                    <path d="M1303.07,1053.25C1297.64,1053.25 1292.29,1050.39 1287.22,1048.82C1255.77,1039.08 1231.22,1001.43 1230.96,956.366C1230.65,904.076 1268.7,860.446 1304.85,860.516C1314.99,860.536 1347.77,859.646 1347.77,859.646L1354.32,1262.84L1368.89,1262.56L1363.01,842.234C1333.54,842.538 1304.41,842.906 1289.5,846C1245.88,859.163 1216.73,897.128 1216.18,953.535C1215.72,1000.27 1236.55,1040.19 1262.13,1053.6C1268.28,1058.23 1281.45,1064.43 1281.45,1064.43L1227.35,1237.48L1242.93,1244.67L1296.06,1070.33L1351.17,1068.93L1350.9,1052.28L1303.07,1053.25Z" style="fill:none;stroke:rgb(24,62,237);stroke-width:2.42px;"/>
                </g>
                <g id="R5" serif:id="R" transform="matrix(1,0,0,1,111,487)">
                    <path d="M1228,906.068L1227,1245L1211,1245L1211,852C1215.98,851.962 1225.62,852.064 1225.62,852.064L1359.8,1202.78L1357.32,968.901C1357.52,958.934 1357.32,948.967 1357,939L1373,938C1373.82,945.889 1374.19,953.736 1374.08,961.54L1375,1212C1372.06,1215.56 1354.41,1225.61 1349,1227C1349,1227 1229.03,911.401 1228,906.068L1228,906C1227.99,905.999 1227.99,906.022 1228,906.068Z" style="fill:none;stroke:rgb(24,62,237);stroke-width:2.47px;"/>
                </g>
                <g id="X2" serif:id="X" transform="matrix(1,0,0,1,111,487)">
                    <path d="M1219.99,1042.79L1088,867.784L1079.77,868.206L1079.81,882.769L1209.99,1056.15L1080.73,1229L1080.73,1245.41L1087.25,1245.39L1219.71,1069.09L1340.83,1230.39L1356.02,1223.15L1229.75,1055.73L1343,905L1332,893L1219.99,1042.79Z" style="fill:none;stroke:rgb(24,62,237);stroke-width:2.47px;"/>
                </g>
                <g id="E2" serif:id="E" transform="matrix(1,0,0,1,111,487)">
                    <path d="M1080.33,1064.4L1080.84,1245.41L1262.2,1244.89L1262.71,1260.54L1063,1260.54L1063,852L1262.71,852L1263.14,867.682L1079.77,868.206L1080.28,1048L1358,1048L1358,1064L1080.33,1064.4Z" style="fill:none;stroke:rgb(24,62,237);stroke-width:2.47px;"/>
                </g>
                <g id="L2" serif:id="L" transform="matrix(1,0,0,1,111,487)">
                    <path d="M1080.28,1048L1080.84,1245.41L1262.2,1244.89L1262.71,1260.54L1063,1260.54L1063,852L1079.77,852.206L1080.28,1048Z" style="fill:none;stroke:rgb(24,62,237);stroke-width:2.47px;"/>
                </g>
                <g id="A2" serif:id="A" transform="matrix(1,0,0,1,111,487)">
                    <path d="M1151.16,1063.58L1080.84,1245.41L1080.73,1207.72L1207.59,867.839L1231.14,867.784L1365.38,1218.22L1349.13,1226.77L1287.91,1063.64L1151.16,1063.58ZM1219.81,883.951L1282.18,1048.38L1157,1048.27L1219.81,883.951Z" style="fill:none;stroke:rgb(24,62,237);stroke-width:2.47px;"/>
                </g>
            </g>
        </g>
        <g id="ART" transform="matrix(1.02251,0,0,0.34383,-224.331,938.034)">
            <g transform="matrix(0.977982,0,0,2.92941,959.923,-3660.39)">
                <path d="M223.818,1764.01L311.359,1908.75L348.32,1908.75L242.173,1733.75L223.818,1764.01ZM172.611,1908.75L136.028,1908.75L209.403,1787.78L215.778,1777.38L234.025,1807.5L227.653,1818.01L172.611,1908.75Z" style="fill:white;fill-rule:nonzero;"/>
            </g>
            <g transform="matrix(0.977982,0,0,2.92941,959.923,-3660.39)">
                <path d="M684.384,1855.88L684.382,1908.75L654.49,1908.75L654.49,1825.98L684.384,1855.88ZM755.338,1766.78L755.338,1736.94L583.528,1736.94L583.528,1766.83L646.423,1766.78L646.423,1766.78L654.49,1766.78L654.49,1806.54L684.384,1836.44L684.387,1766.78L755.338,1766.78Z" style="fill:white;fill-rule:nonzero;"/>
            </g>
            <g transform="matrix(0.977982,0,0,2.92941,959.923,-3660.39)">
                <path d="M378.278,1784.86L502.326,1908.75L553.628,1908.75L474.105,1829.82C486.1,1829.76 509.208,1830.76 520.82,1823.74C532.305,1816.81 542.383,1806.11 542.945,1792.36C543.123,1790.62 543.215,1788.85 543.215,1787.08C543.215,1783.07 542.745,1779.08 541.818,1775.24C539.673,1766.34 535.078,1758.18 528.53,1751.62C521.495,1744.59 512.673,1739.85 503.015,1737.92C499.77,1737.27 496.428,1736.94 493.08,1736.94L378.278,1736.94L378.278,1784.86ZM378.278,1819.1L378.278,1803.18L409.62,1834.41L409.62,1850.42C409.62,1850.42 409.631,1850.43 409.631,1850.43L409.674,1908.75L378.278,1908.75L378.278,1819.1ZM512.142,1786.17C512.067,1784.33 511.634,1782.55 510.871,1780.9C510.598,1780.3 510.278,1779.71 509.921,1779.16C509.803,1778.97 509.681,1778.79 509.551,1778.61C509.373,1778.36 509.221,1778.15 509.073,1777.96L508.671,1777.48C508.621,1777.42 508.573,1777.36 508.518,1777.3C508.336,1777.1 508.133,1776.88 507.913,1776.66C506.368,1775.12 504.507,1773.79 502.482,1773.07C501.82,1772.83 501.13,1772.64 500.435,1772.5C499.497,1772.32 498.532,1772.22 497.565,1772.22L417.045,1772.22L417.094,1772.28L417.045,1772.28L445.947,1801.64L497.604,1801.64C498.572,1801.64 499.537,1801.55 500.474,1801.36C501.169,1801.23 501.859,1801.04 502.522,1800.8C504.547,1800.07 506.354,1798.92 507.899,1797.38C508.119,1797.16 508.322,1796.94 508.504,1796.74C508.559,1796.68 508.607,1796.62 508.657,1796.56L509.059,1796.08C509.207,1795.89 509.359,1795.68 509.537,1795.43C509.667,1795.25 509.789,1795.07 509.907,1794.88C510.264,1794.33 510.584,1793.74 510.857,1793.14C511.472,1791.81 511.872,1790.4 512.042,1788.94L512.083,1788.71C512.116,1788.42 512.141,1788.13 512.158,1787.84C512.176,1787.55 512.183,1787.26 512.183,1786.96L512.142,1786.17Z" style="fill:white;"/>
            </g>
        </g>
        <g id="ech" transform="matrix(1,0,0,1.00722,753.101,-318.962)">
            <g transform="matrix(1,0,0,1,4.1021,-1.54402)">
                <path d="M714.047,1807.51L714.047,1805.17L705.8,1796.92L705.8,1815.75L733.582,1815.75L733.597,1807.51L714.047,1807.51ZM714.947,1790.7L719.252,1795.01L733.596,1795.01L733.596,1803.26L715.86,1803.26L705.8,1793.2L705.8,1782.45L733.596,1782.45L733.596,1790.7L714.947,1790.7L714.041,1790.69L714.04,1790.69L714.04,1790.69L714.041,1790.69L718.345,1795.01L719.247,1795.01L714.947,1790.7Z" style="fill:white;fill-rule:nonzero;"/>
            </g>
            <g transform="matrix(1,0,0,1,4.1021,-1.54402)">
                <path d="M705.181,1908.79L713.428,1908.79L713.428,1897.19L705.181,1888.95L705.181,1908.79ZM725.962,1888.05L716.237,1888.05L713.426,1885.24L713.436,1881.81L713.428,1881.8L713.428,1875.49L705.181,1875.49L705.181,1885.22L716.256,1896.29L725.962,1896.29L725.962,1908.79L734.208,1908.79L734.208,1875.49L725.962,1875.49L725.962,1888.05Z" style="fill:white;fill-rule:nonzero;"/>
            </g>
            <g transform="matrix(1,0,0,0.992832,-1175.8,1695.57)">
                <path d="M1914.92,156.544L1907.08,153.197C1906.73,153.782 1906.3,154.326 1905.81,154.822C1905.15,155.489 1904.39,156.039 1903.57,156.457C1903.31,156.586 1903.05,156.705 1902.78,156.808C1901.95,157.122 1901.09,157.309 1900.2,157.36C1899.8,157.383 1899.38,157.378 1898.99,157.346C1896.95,157.182 1895.03,156.286 1893.58,154.822C1892.12,153.359 1891.23,151.424 1891.07,149.373L1891.05,149.127L1883.89,141.919L1883.54,142.924C1882.9,144.762 1882.57,146.692 1882.57,148.661C1882.57,153.267 1884.35,157.597 1887.59,160.854C1890.82,164.111 1895.12,165.905 1899.69,165.905C1902.01,165.905 1904.25,165.449 1906.36,164.548C1906.76,164.378 1907.16,164.19 1907.55,163.988C1909.74,162.843 1911.71,161.195 1913.23,159.221C1913.87,158.385 1914.44,157.487 1914.92,156.544ZM1916.58,151.64L1916.58,151.621L1916.58,151.584L1916.59,151.584L1916.58,151.64ZM1907.06,144.091L1907.06,144.091L1914.92,140.781C1913.84,138.671 1912.33,136.785 1910.48,135.272C1907.44,132.785 1903.61,131.416 1899.69,131.416C1894.08,131.416 1888.82,134.192 1885.62,138.842L1885.3,139.302L1891.54,145.586L1891.95,144.756C1892.37,143.925 1892.91,143.166 1893.58,142.499C1895.21,140.853 1897.38,139.946 1899.69,139.946C1902,139.946 1904.18,140.853 1905.81,142.499C1906.29,142.986 1906.71,143.518 1907.06,144.091Z" style="fill:white;fill-rule:nonzero;"/>
            </g>
        </g>
        <g id="process" transform="matrix(1.92617,0,0,0.994913,-1136.09,-16.9571)">
            <g transform="matrix(0.519164,0,0,1.00511,516.899,-8.31209)">
                <path d="M1213.69,1727.79C1214.44,1726.91 1215.06,1726.66 1215.56,1727.04C1216.06,1727.41 1215.88,1728.1 1215,1729.1C1213.5,1730.85 1211.53,1732.75 1209.09,1734.82C1206.66,1736.88 1204.06,1738.88 1201.31,1740.82C1198.56,1742.75 1195.91,1744.57 1193.34,1746.25C1190.78,1747.94 1188.56,1749.29 1186.69,1750.29C1180.44,1753.79 1174.34,1756.54 1168.41,1758.54C1162.47,1760.54 1157.94,1761.6 1154.81,1761.72C1154.44,1761.72 1153.94,1761.5 1153.31,1761.07C1152.69,1760.63 1152.81,1760.04 1153.69,1759.29C1154.44,1758.66 1155.38,1757.54 1156.5,1755.91C1157.62,1754.29 1158.81,1752.38 1160.06,1750.19C1161.31,1748 1162.56,1745.6 1163.81,1742.97C1165.06,1740.35 1166.19,1737.72 1167.19,1735.1C1168.19,1732.97 1168.94,1730.94 1169.44,1729C1169.94,1727.07 1170.31,1725.22 1170.56,1723.47C1170.94,1719.85 1170.31,1717.35 1168.69,1715.97C1167.06,1714.6 1164.81,1715.41 1161.94,1718.41C1159.94,1720.54 1157.81,1723.69 1155.56,1727.88C1153.31,1732.07 1150.97,1736.94 1148.53,1742.5C1146.09,1748.07 1143.62,1754.16 1141.12,1760.79C1138.62,1767.41 1136.12,1774.22 1133.62,1781.22C1131.12,1787.97 1128.66,1794.66 1126.22,1801.29C1123.78,1807.91 1121.47,1814.22 1119.28,1820.22C1117.09,1826.22 1115.03,1831.69 1113.09,1836.63C1111.16,1841.57 1109.44,1845.66 1107.94,1848.91C1107.56,1849.66 1106.81,1851 1105.69,1852.94C1104.56,1854.88 1103.31,1856.41 1101.94,1857.54C1100.94,1858.54 1099.81,1858.97 1098.56,1858.85C1097.31,1858.72 1096.5,1857.54 1096.12,1855.29C1095.38,1851.54 1095.12,1847.19 1095.38,1842.25C1095.62,1837.32 1096.25,1832.07 1097.25,1826.5C1098.25,1820.94 1099.56,1815.22 1101.19,1809.35C1102.81,1803.47 1104.62,1797.72 1106.62,1792.1C1108.5,1786.47 1110.5,1780.82 1112.62,1775.13C1114.75,1769.44 1116.81,1763.94 1118.81,1758.63C1120.81,1753.32 1122.72,1748.19 1124.53,1743.25C1126.34,1738.32 1127.88,1733.79 1129.12,1729.66C1129.38,1728.91 1129.69,1727.91 1130.06,1726.66C1130.44,1725.41 1131.06,1724.72 1131.94,1724.6C1132.94,1724.6 1133.94,1725.04 1134.94,1725.91C1135.94,1726.79 1136.62,1727.97 1137,1729.47C1137.88,1733.1 1138.03,1737.47 1137.47,1742.6C1136.91,1747.72 1135.84,1753.35 1134.28,1759.47C1132.72,1765.6 1130.75,1771.97 1128.38,1778.6C1126,1785.22 1123.56,1791.82 1121.06,1798.38C1118.56,1804.94 1116.09,1811.22 1113.66,1817.22C1111.22,1823.22 1109.09,1828.66 1107.28,1833.54C1105.47,1838.41 1104.06,1842.54 1103.06,1845.91C1102.06,1849.29 1101.81,1851.54 1102.31,1852.66C1102.81,1853.66 1104,1852.1 1105.88,1847.97C1107.75,1843.85 1110.03,1838.19 1112.72,1831C1115.41,1823.82 1118.34,1815.66 1121.53,1806.54C1124.72,1797.41 1128,1788.35 1131.38,1779.35C1133.88,1772.6 1136.38,1765.97 1138.88,1759.47C1141.38,1752.97 1143.91,1746.91 1146.47,1741.29C1149.03,1735.66 1151.53,1730.69 1153.97,1726.38C1156.41,1722.07 1158.81,1718.79 1161.19,1716.54C1164.06,1713.79 1166.62,1712.69 1168.88,1713.25C1171.12,1713.82 1172.97,1715.32 1174.41,1717.75C1175.84,1720.19 1176.84,1723.19 1177.41,1726.75C1177.97,1730.32 1178.06,1733.72 1177.69,1736.97C1177.31,1739.47 1176.56,1741.75 1175.44,1743.82C1174.31,1745.88 1172.97,1747.82 1171.41,1749.63C1169.84,1751.44 1168.09,1753.1 1166.16,1754.6C1164.22,1756.1 1162.31,1757.41 1160.44,1758.54C1163.94,1757.66 1168.06,1756.35 1172.81,1754.6C1177.56,1752.85 1182.25,1750.72 1186.88,1748.22C1192.5,1745.1 1197.69,1741.63 1202.44,1737.82C1207.19,1734 1210.94,1730.66 1213.69,1727.79Z" style="fill:white;fill-rule:nonzero;"/>
            </g>
            <g transform="matrix(0.519164,0,0,1.00511,516.899,-8.31209)">
                <path d="M1279.5,1727.6C1280.38,1726.85 1281.03,1726.66 1281.47,1727.04C1281.91,1727.41 1281.62,1728.1 1280.62,1729.1L1278.38,1731.35C1275.12,1734.47 1271.78,1737.97 1268.34,1741.85C1264.91,1745.72 1261.56,1749.6 1258.31,1753.47C1256.31,1755.72 1254.03,1758.32 1251.47,1761.25C1248.91,1764.19 1246.19,1766.85 1243.31,1769.22C1240.44,1771.6 1237.38,1773.41 1234.12,1774.66C1230.88,1775.91 1227.62,1775.97 1224.38,1774.85C1220.62,1773.6 1218.16,1771.63 1216.97,1768.94C1215.78,1766.25 1215.34,1763.22 1215.66,1759.85C1215.97,1756.47 1216.81,1753 1218.19,1749.44C1219.56,1745.88 1220.94,1742.6 1222.31,1739.6C1223.69,1736.6 1224.88,1734.07 1225.88,1732C1226.88,1729.94 1227.19,1728.72 1226.81,1728.35C1225.81,1727.47 1224.66,1726.88 1223.34,1726.57C1222.03,1726.25 1220.69,1725.97 1219.31,1725.72L1219.12,1725.54C1217.38,1726.91 1215.59,1728.41 1213.78,1730.04C1211.97,1731.66 1210.31,1733.22 1208.81,1734.72C1207.81,1735.47 1207.09,1735.69 1206.66,1735.38C1206.22,1735.07 1206.5,1734.41 1207.5,1733.41C1209,1732.04 1210.53,1730.63 1212.09,1729.19C1213.66,1727.75 1215.25,1726.35 1216.88,1724.97L1216.69,1724.79C1214.56,1723.91 1212.81,1722.66 1211.44,1721.04C1210.06,1719.41 1209.62,1717.35 1210.12,1714.85C1210.62,1712.72 1211.72,1710.57 1213.41,1708.38C1215.09,1706.19 1217.19,1704.29 1219.69,1702.66C1222.81,1700.79 1225.19,1700.41 1226.81,1701.54C1228.19,1702.41 1229,1703.75 1229.25,1705.57C1229.5,1707.38 1229.41,1709.25 1228.97,1711.19C1228.53,1713.13 1227.84,1715.04 1226.91,1716.91C1225.97,1718.79 1224.94,1720.22 1223.81,1721.22C1223.81,1721.22 1224.22,1721.44 1225.03,1721.88C1225.84,1722.32 1226.81,1722.85 1227.94,1723.47C1229.06,1724.1 1230.22,1724.88 1231.41,1725.82C1232.59,1726.75 1233.69,1727.72 1234.69,1728.72C1236.94,1731.22 1237.75,1733.38 1237.12,1735.19C1236.5,1737 1235.5,1739.16 1234.12,1741.66C1232.62,1744.54 1230.91,1747.82 1228.97,1751.5C1227.03,1755.19 1225.53,1758.66 1224.47,1761.91C1223.41,1765.16 1223.09,1767.91 1223.53,1770.16C1223.97,1772.41 1225.75,1773.54 1228.88,1773.54C1232.38,1773.79 1235.97,1772.44 1239.66,1769.5C1243.34,1766.57 1247.19,1762.91 1251.19,1758.54C1255.19,1754.16 1259.31,1749.41 1263.56,1744.29C1267.81,1739.16 1272.25,1734.41 1276.88,1730.04C1277.38,1729.66 1277.84,1729.29 1278.28,1728.91C1278.72,1728.54 1279.12,1728.1 1279.5,1727.6ZM1221.75,1720.66C1222.75,1719.91 1223.72,1718.79 1224.66,1717.29C1225.59,1715.79 1226.28,1714.22 1226.72,1712.6C1227.16,1710.97 1227.31,1709.5 1227.19,1708.19C1227.06,1706.88 1226.44,1706.04 1225.31,1705.66C1224.31,1705.29 1223.06,1705.63 1221.56,1706.69C1220.06,1707.75 1218.81,1708.97 1217.81,1710.35C1216.44,1712.47 1216.12,1714.54 1216.88,1716.54C1217.62,1718.54 1219.25,1719.91 1221.75,1720.66Z" style="fill:white;fill-rule:nonzero;"/>
            </g>
            <g transform="matrix(0.519164,0,0,1.00511,516.899,-8.31209)">
                <path d="M1344.94,1727.6C1345.81,1726.85 1346.5,1726.66 1347,1727.04C1347.5,1727.41 1347.25,1728.1 1346.25,1729.1C1343,1732.47 1339.84,1735.35 1336.78,1737.72C1333.72,1740.1 1329.81,1742.1 1325.06,1743.72C1315.44,1746.97 1305.19,1747.16 1294.31,1744.29C1292.81,1749.04 1290.62,1752.79 1287.75,1755.54C1284.88,1758.29 1282.19,1759.66 1279.69,1759.66C1277.31,1759.66 1275.22,1758.35 1273.41,1755.72C1271.59,1753.1 1271,1748.91 1271.62,1743.16C1271.75,1741.66 1272.12,1739.94 1272.75,1738C1273.38,1736.07 1274.12,1734.13 1275,1732.19C1275.88,1730.25 1276.88,1728.47 1278,1726.85C1279.12,1725.22 1280.38,1723.91 1281.75,1722.91C1283.12,1721.54 1284.41,1721.04 1285.59,1721.41C1286.78,1721.79 1287.69,1722.35 1288.31,1723.1C1288.94,1723.97 1289.38,1724.97 1289.62,1726.1C1289.88,1727.22 1289.56,1728.41 1288.69,1729.66C1288.44,1730.29 1287.84,1731.32 1286.91,1732.75C1285.97,1734.19 1284.94,1735.91 1283.81,1737.91C1286.94,1739.54 1290.06,1740.72 1293.19,1741.47C1293.44,1740.47 1293.62,1739.47 1293.75,1738.47C1293.88,1737.47 1293.94,1736.47 1293.94,1735.47C1294.31,1730.47 1293.81,1726.13 1292.44,1722.44C1291.06,1718.75 1289.28,1715.88 1287.09,1713.82C1284.91,1711.75 1282.5,1710.5 1279.88,1710.07C1277.25,1709.63 1274.94,1710.16 1272.94,1711.66C1271.19,1712.91 1270.12,1714.44 1269.75,1716.25C1269.38,1718.07 1269.38,1719.91 1269.75,1721.79C1270.12,1723.66 1270.81,1725.5 1271.81,1727.32C1272.81,1729.13 1273.81,1730.66 1274.81,1731.91L1274.06,1733.6C1272.81,1732.1 1271.59,1730.29 1270.41,1728.16C1269.22,1726.04 1268.38,1723.85 1267.88,1721.6C1267.38,1719.35 1267.38,1717.19 1267.88,1715.13C1268.38,1713.07 1269.75,1711.35 1272,1709.97C1274.12,1708.6 1276.62,1708.07 1279.5,1708.38C1282.38,1708.69 1285.09,1709.88 1287.66,1711.94C1290.22,1714 1292.31,1717.04 1293.94,1721.04C1295.56,1725.04 1296.19,1730.04 1295.81,1736.04C1295.81,1737.04 1295.75,1738.04 1295.62,1739.04C1295.5,1740.04 1295.31,1741.04 1295.06,1742.04C1300.56,1743.54 1305.75,1744.19 1310.62,1744C1315.5,1743.82 1320,1743.04 1324.12,1741.66C1328.75,1740.16 1332.53,1738.25 1335.47,1735.94C1338.41,1733.63 1341.56,1730.85 1344.94,1727.6ZM1281.38,1757.22C1283.88,1756.6 1286.09,1755 1288.03,1752.44C1289.97,1749.88 1291.44,1746.97 1292.44,1743.72C1290.81,1743.22 1289.19,1742.69 1287.56,1742.13C1285.94,1741.57 1284.38,1740.79 1282.88,1739.79C1281.75,1741.91 1280.69,1744.1 1279.69,1746.35C1278.69,1748.6 1278,1750.6 1277.62,1752.35C1277.25,1754.1 1277.31,1755.44 1277.81,1756.38C1278.31,1757.32 1279.5,1757.6 1281.38,1757.22Z" style="fill:white;fill-rule:nonzero;"/>
            </g>
            <g transform="matrix(0.519164,0,0,1.00511,516.899,-8.31209)">
                <path d="M1409.81,1727.79C1410.44,1727.54 1410.84,1727.63 1411.03,1728.07C1411.22,1728.5 1411,1729.04 1410.38,1729.66C1406.38,1733.66 1401.94,1737.41 1397.06,1740.91C1392.19,1744.41 1387.25,1747.47 1382.25,1750.1C1375.5,1753.47 1369.06,1756.07 1362.94,1757.88C1356.81,1759.69 1351.88,1760.29 1348.12,1759.66C1345.25,1759.16 1343,1757.88 1341.38,1755.82C1339.75,1753.75 1338.62,1751.35 1338,1748.6C1337.38,1745.85 1337.25,1743.04 1337.62,1740.16C1338,1737.29 1338.75,1734.79 1339.88,1732.66C1341.5,1729.66 1343.28,1727.19 1345.22,1725.25C1347.16,1723.32 1349.56,1721.47 1352.44,1719.72C1354.06,1718.72 1355.94,1717.79 1358.06,1716.91C1360.19,1716.04 1362.31,1715.5 1364.44,1715.32C1366.56,1715.13 1368.59,1715.35 1370.53,1715.97C1372.47,1716.6 1374.12,1717.85 1375.5,1719.72C1376,1720.6 1376.03,1721.16 1375.59,1721.41C1375.16,1721.66 1374.69,1721.54 1374.19,1721.04C1372.69,1719.41 1370.84,1719.04 1368.66,1719.91C1366.47,1720.79 1364.28,1722.41 1362.09,1724.79C1359.91,1727.16 1357.81,1730 1355.81,1733.32C1353.81,1736.63 1352.16,1739.88 1350.84,1743.07C1349.53,1746.25 1348.75,1749.07 1348.5,1751.5C1348.25,1753.94 1348.75,1755.47 1350,1756.1C1351.25,1756.72 1352.97,1757 1355.16,1756.94C1357.34,1756.88 1359.81,1756.47 1362.56,1755.72C1365.31,1754.97 1368.28,1753.97 1371.47,1752.72C1374.66,1751.47 1377.94,1749.97 1381.31,1748.22C1386.44,1745.72 1391.47,1742.63 1396.41,1738.94C1401.34,1735.25 1405.81,1731.54 1409.81,1727.79Z" style="fill:white;fill-rule:nonzero;"/>
            </g>
            <g transform="matrix(0.519164,0,0,1.00511,516.899,-8.31209)">
                <path d="M1476.38,1727.22C1477,1726.85 1477.47,1726.85 1477.78,1727.22C1478.09,1727.6 1477.81,1728.22 1476.94,1729.1C1475.81,1730.1 1474.72,1731.07 1473.66,1732C1472.59,1732.94 1471.5,1733.91 1470.38,1734.91C1466.88,1737.79 1462.97,1740.54 1458.66,1743.16C1454.34,1745.79 1450,1748.16 1445.62,1750.29C1439.25,1753.29 1433.12,1755.5 1427.25,1756.94C1421.38,1758.38 1416.62,1758.97 1413,1758.72C1410.12,1758.47 1407.84,1757.41 1406.16,1755.54C1404.47,1753.66 1403.25,1751.44 1402.5,1748.88C1401.75,1746.32 1401.5,1743.63 1401.75,1740.82C1402,1738 1402.69,1735.47 1403.81,1733.22C1405.06,1730.6 1406.81,1728.19 1409.06,1726C1411.31,1723.82 1413.84,1721.94 1416.66,1720.38C1419.47,1718.82 1422.44,1717.72 1425.56,1717.1C1428.69,1716.47 1431.69,1716.41 1434.56,1716.91C1436.69,1717.41 1438.22,1718.29 1439.16,1719.54C1440.09,1720.79 1440.38,1722.1 1440,1723.47C1439.62,1724.85 1438.44,1725.97 1436.44,1726.85C1434.44,1727.72 1431.75,1727.72 1428.38,1726.85C1427,1726.47 1425.75,1726.29 1424.62,1726.29C1422.75,1728.41 1420.94,1731.04 1419.19,1734.16C1417.44,1737.29 1416.06,1740.32 1415.06,1743.25C1414.06,1746.19 1413.47,1748.79 1413.28,1751.04C1413.09,1753.29 1413.62,1754.66 1414.88,1755.16C1416,1755.54 1417.62,1755.69 1419.75,1755.63C1421.88,1755.57 1424.31,1755.22 1427.06,1754.6C1429.81,1753.97 1432.78,1753.13 1435.97,1752.07C1439.16,1751 1442.44,1749.66 1445.81,1748.04C1450.19,1746.04 1454.5,1743.66 1458.75,1740.91C1463,1738.16 1466.75,1735.47 1470,1732.85C1471.12,1731.97 1472.12,1731.04 1473,1730.04C1473.88,1729.04 1475,1728.1 1476.38,1727.22ZM1433.62,1720.47C1432.25,1720.72 1430.88,1721.19 1429.5,1721.88C1428.12,1722.57 1426.81,1723.6 1425.56,1724.97C1426.19,1724.97 1426.75,1725.04 1427.25,1725.16C1427.75,1725.29 1428.25,1725.41 1428.75,1725.54C1432,1726.41 1434.41,1726.5 1435.97,1725.82C1437.53,1725.13 1438.44,1724.22 1438.69,1723.1C1438.94,1722.1 1438.69,1721.29 1437.94,1720.66C1437.19,1720.04 1435.75,1719.97 1433.62,1720.47Z" style="fill:white;fill-rule:nonzero;"/>
            </g>
            <g transform="matrix(0.519164,0,0,1.00511,516.899,-8.31209)">
                <path d="M1537.31,1727.04C1538.06,1726.16 1538.69,1725.94 1539.19,1726.38C1539.69,1726.82 1539.44,1727.6 1538.44,1728.72C1535.06,1732.6 1531.56,1735.41 1527.94,1737.16C1524.31,1738.91 1520.47,1740.19 1516.41,1741C1512.34,1741.82 1508.12,1742.38 1503.75,1742.69C1499.38,1743 1494.88,1743.72 1490.25,1744.85C1489.75,1746.1 1489,1747.41 1488,1748.79C1487,1750.16 1485.84,1751.38 1484.53,1752.44C1483.22,1753.5 1481.84,1754.25 1480.41,1754.69C1478.97,1755.13 1477.56,1754.97 1476.19,1754.22C1475.44,1753.85 1474.97,1753.29 1474.78,1752.54C1474.59,1751.79 1474.72,1750.94 1475.16,1750C1475.59,1749.07 1476.47,1748.13 1477.78,1747.19C1479.09,1746.25 1480.88,1745.41 1483.12,1744.66C1483.5,1742.54 1483.59,1739.6 1483.41,1735.85C1483.22,1732.1 1483.44,1728.22 1484.06,1724.22C1484.06,1723.72 1484.12,1723.35 1484.25,1723.1C1482.12,1724.72 1479.88,1726.57 1477.5,1728.63C1475.12,1730.69 1472.88,1732.72 1470.75,1734.72C1469.75,1735.47 1469.03,1735.69 1468.59,1735.38C1468.16,1735.07 1468.44,1734.41 1469.44,1733.41C1471.69,1731.29 1474.16,1729.07 1476.84,1726.75C1479.53,1724.44 1482.12,1722.41 1484.62,1720.66C1485.88,1715.54 1487.81,1711.16 1490.44,1707.54C1492.69,1704.54 1495.12,1702.54 1497.75,1701.54C1500.38,1700.54 1502.72,1700.19 1504.78,1700.5C1506.84,1700.82 1508.53,1701.63 1509.84,1702.94C1511.16,1704.25 1511.62,1705.85 1511.25,1707.72C1510.88,1709.72 1509.5,1711.75 1507.12,1713.82C1504.75,1715.88 1500.75,1717.66 1495.12,1719.16C1494.75,1723.91 1494.31,1728.04 1493.81,1731.54C1493.31,1735.04 1492.38,1738.79 1491,1742.79C1497.88,1741.54 1503.62,1740.6 1508.25,1739.97C1512.88,1739.35 1516.88,1738.6 1520.25,1737.72C1523.62,1736.85 1526.62,1735.63 1529.25,1734.07C1531.88,1732.5 1534.56,1730.16 1537.31,1727.04ZM1499.44,1705.66C1498.06,1707.29 1497.12,1709.16 1496.62,1711.29C1496.12,1713.41 1495.75,1715.35 1495.5,1717.1C1499.75,1715.85 1502.88,1714.5 1504.88,1713.07C1506.88,1711.63 1508.19,1710.16 1508.81,1708.66C1509.31,1707.41 1509.38,1706.25 1509,1705.19C1508.62,1704.13 1507.94,1703.38 1506.94,1702.94C1505.94,1702.5 1504.78,1702.47 1503.47,1702.85C1502.16,1703.22 1500.81,1704.16 1499.44,1705.66ZM1476.94,1752.72C1477.44,1753.22 1478.22,1753.1 1479.28,1752.35C1480.34,1751.6 1481.44,1749.66 1482.56,1746.54C1480.19,1747.16 1478.5,1748.22 1477.5,1749.72C1476.5,1751.22 1476.31,1752.22 1476.94,1752.72Z" style="fill:white;fill-rule:nonzero;"/>
            </g>
            <g transform="matrix(0.519164,0,0,1.00511,516.899,-8.31209)">
                <path d="M1598.25,1727.04C1599,1726.16 1599.62,1725.94 1600.12,1726.38C1600.62,1726.82 1600.38,1727.6 1599.38,1728.72C1596,1732.6 1592.5,1735.41 1588.88,1737.16C1585.25,1738.91 1581.41,1740.19 1577.34,1741C1573.28,1741.82 1569.06,1742.38 1564.69,1742.69C1560.31,1743 1555.81,1743.72 1551.19,1744.85C1550.69,1746.1 1549.94,1747.41 1548.94,1748.79C1547.94,1750.16 1546.78,1751.38 1545.47,1752.44C1544.16,1753.5 1542.78,1754.25 1541.34,1754.69C1539.91,1755.13 1538.5,1754.97 1537.12,1754.22C1536.38,1753.85 1535.91,1753.29 1535.72,1752.54C1535.53,1751.79 1535.66,1750.94 1536.09,1750C1536.53,1749.07 1537.41,1748.13 1538.72,1747.19C1540.03,1746.25 1541.81,1745.41 1544.06,1744.66C1544.44,1742.54 1544.53,1739.6 1544.34,1735.85C1544.16,1732.1 1544.38,1728.22 1545,1724.22C1545,1723.72 1545.06,1723.35 1545.19,1723.1C1543.06,1724.72 1540.81,1726.57 1538.44,1728.63C1536.06,1730.69 1533.81,1732.72 1531.69,1734.72C1530.69,1735.47 1529.97,1735.69 1529.53,1735.38C1529.09,1735.07 1529.38,1734.41 1530.38,1733.41C1532.62,1731.29 1535.09,1729.07 1537.78,1726.75C1540.47,1724.44 1543.06,1722.41 1545.56,1720.66C1546.81,1715.54 1548.75,1711.16 1551.38,1707.54C1553.62,1704.54 1556.06,1702.54 1558.69,1701.54C1561.31,1700.54 1563.66,1700.19 1565.72,1700.5C1567.78,1700.82 1569.47,1701.63 1570.78,1702.94C1572.09,1704.25 1572.56,1705.85 1572.19,1707.72C1571.81,1709.72 1570.44,1711.75 1568.06,1713.82C1565.69,1715.88 1561.69,1717.66 1556.06,1719.16C1555.69,1723.91 1555.25,1728.04 1554.75,1731.54C1554.25,1735.04 1553.31,1738.79 1551.94,1742.79C1558.81,1741.54 1564.56,1740.6 1569.19,1739.97C1573.81,1739.35 1577.81,1738.6 1581.19,1737.72C1584.56,1736.85 1587.56,1735.63 1590.19,1734.07C1592.81,1732.5 1595.5,1730.16 1598.25,1727.04ZM1560.38,1705.66C1559,1707.29 1558.06,1709.16 1557.56,1711.29C1557.06,1713.41 1556.69,1715.35 1556.44,1717.1C1560.69,1715.85 1563.81,1714.5 1565.81,1713.07C1567.81,1711.63 1569.12,1710.16 1569.75,1708.66C1570.25,1707.41 1570.31,1706.25 1569.94,1705.19C1569.56,1704.13 1568.88,1703.38 1567.88,1702.94C1566.88,1702.5 1565.72,1702.47 1564.41,1702.85C1563.09,1703.22 1561.75,1704.16 1560.38,1705.66ZM1537.88,1752.72C1538.38,1753.22 1539.16,1753.1 1540.22,1752.35C1541.28,1751.6 1542.38,1749.66 1543.5,1746.54C1541.12,1747.16 1539.44,1748.22 1538.44,1749.72C1537.44,1751.22 1537.25,1752.22 1537.88,1752.72Z" style="fill:white;fill-rule:nonzero;"/>
            </g>
        </g>
    </g>
</svg>
